<svg xmlns="http://www.w3.org/2000/svg" viewBox="0 0 39.85 25.62"><defs><style>.cls-1,.cls-2{fill:#715b91;}.cls-1{stroke:#715b91;stroke-miterlimit:10;}</style></defs><g id="Layer_2" data-name="Layer 2"><g id="Layer_1-2" data-name="Layer 1"><path class="cls-1" d="M16.53,19.35a.87.87,0,0,1-.84-.62L10.45,1.5H1.88V.5h8.65a.88.88,0,0,1,.85.62l5.24,17.23,18.78-.07v1l-18.87.07Z"/><path class="cls-1" d="M15.21,16.28v-1l19.13-.16,4-12.57-27.47.16v-1l27.63-.16a1,1,0,0,1,.72.36.92.92,0,0,1,.13.79L35.26,15.51a.89.89,0,0,1-.84.61Z"/><ellipse class="cls-1" cx="34.85" cy="18.75" rx="1.05" ry="0.52"/><ellipse class="cls-1" cx="2.43" cy="1.02" rx="1.05" ry="0.52"/><path class="cls-1" d="M19.8,25.06a2.54,2.54,0,1,1,2.53-2.53A2.54,2.54,0,0,1,19.8,25.06Zm0-4.07a1.54,1.54,0,1,0,1.53,1.54A1.54,1.54,0,0,0,19.8,21Z"/><path class="cls-1" d="M31.76,25.12a2.53,2.53,0,1,1,2.54-2.53A2.53,2.53,0,0,1,31.76,25.12Zm0-4.06a1.53,1.53,0,1,0,1.54,1.53A1.54,1.54,0,0,0,31.76,21.06Z"/><path class="cls-1" d="M31.05,9.13a.57.57,0,0,1,0,.14L31,8.6v.08L31.09,8a4.52,4.52,0,0,1-.21.62,3.6,3.6,0,0,0-.15.63c-.12.63-.17,1.27-.26,1.9l.09-.67a4.84,4.84,0,0,1-.31,1.26l.26-.59-.14.27A3.19,3.19,0,0,0,30,12.77a2.53,2.53,0,0,0,1,2.12,2.77,2.77,0,0,0,1.68.59h.34l-.67-.09.08,0-.6-.25,0,0-.51-.39a.12.12,0,0,1,.05,0l-.39-.51,0,0a2.49,2.49,0,0,0,1.49,1.15,2.5,2.5,0,0,0,3.08-1.74l.09-.67a2.53,2.53,0,0,0-.34-1.26,3.49,3.49,0,0,0-.41-.54,3.26,3.26,0,0,0-.3-.25,2.63,2.63,0,0,0-1-.48,5,5,0,0,0-1-.1l.66.08-.11,0,.6.25,0,0,.5.39,0,0,.39.51,0,0,.25.59v0l.09.66v-.07l-.09.66,0-.07-.25.6a6.5,6.5,0,0,0,.63-1.76c.12-.62.17-1.26.26-1.89l-.09.67a5.77,5.77,0,0,1,.21-1c0-.16.13-.31.18-.47A4.53,4.53,0,0,0,36,8.68a2.19,2.19,0,0,0-.13-.88A1.89,1.89,0,0,0,35.42,7a1.87,1.87,0,0,0-.7-.64,2.56,2.56,0,0,0-1.93-.26A2.53,2.53,0,0,0,31.3,7.2a2.39,2.39,0,0,0-.25,1.93Z"/><path class="cls-1" d="M30.4,15l.7.23V10.41a18.07,18.07,0,0,1-3.24.11l-3.68,0-7.57-.09a2.5,2.5,0,0,0,0,5l7.87.09,3.8,0a16,16,0,0,0,4.15-.29c2.47-.65,2.28-4.09,0-4.82l-.7-.23a2.52,2.52,0,0,0-3.08,1.75A2.56,2.56,0,0,0,30.4,15Z"/><path class="cls-2" d="M16.74,13.11"/><path class="cls-2" d="M16.74,15.61c3.22,0,3.22-5,0-5s-3.22,5,0,5Z"/><path class="cls-1" d="M17.85,9.52l-.18-.07,1.1.64c.56.58.5,1.47.41.56a6.85,6.85,0,0,0-.16-1,16.17,16.17,0,0,0-.93-2.19L16.31,3.5,13.49,7.18a25,25,0,0,0,7.42.47,32.67,32.67,0,0,1,6.92-.05l-1.1-4.18c.29-.29-.05,0-.42,0s-.7.13-1,.18c-1,.13-2.06.17-3.09.25-2,.15-4.41.14-5.85,1.7a2.86,2.86,0,0,0-.46,3.36,5,5,0,0,0,2.69,1.88,14.59,14.59,0,0,0,6,.7,26.73,26.73,0,0,0,6.17-.9A8.25,8.25,0,0,0,33.37,9,6.8,6.8,0,0,1,35,8.49a3.54,3.54,0,0,0,2.48-2.62,3,3,0,0,0-1.71-3.26c-1.83-1-4.27-.49-6.25-.41l-14.48.59v5l2.24-.23a2.57,2.57,0,0,0,2.5-2.5,2.51,2.51,0,0,0-2.5-2.5l-2.24.23a2.57,2.57,0,0,0-2.5,2.5,2.52,2.52,0,0,0,2.5,2.5L25,7.38l5-.2,2.28-.09a7.89,7.89,0,0,1,1.09,0c.33,0-.18-.24.32.12l-.9-.9.18.25-.34-1.26,0,.28.73-1.77a.08.08,0,0,0,.1,0c.11-.07,0,0-.27.05s-.6.12-.9.22a5.87,5.87,0,0,0-2,1.16,2.63,2.63,0,0,1-1,.63,14.09,14.09,0,0,1-2.23.4,23.24,23.24,0,0,1-4,.3,9.35,9.35,0,0,1-2-.21c-.33-.07-.65-.23-1-.28-.49-.08-.38-.67.12.3l.25,1.92c-.15,1-1.2,1-.07.78.42-.07.84-.1,1.26-.13,1-.09,1.93-.14,2.9-.22,1.94-.18,4.32-.27,5.78-1.74,1.2-1.22.82-3.87-1.11-4.18a34.09,34.09,0,0,0-7.49-.18,22.86,22.86,0,0,1-6.86-.24A2.53,2.53,0,0,0,12,6l1.1,2.44a20.48,20.48,0,0,1,1.1,2.44c.07.25-.14-.55,0,.19.08.37.06.75.17,1.11a3.2,3.2,0,0,0,2.13,2.13,2.52,2.52,0,0,0,3.08-1.75,2.56,2.56,0,0,0-1.75-3.07Z"/><path class="cls-2" d="M14.23,4.4"/><path class="cls-2" d="M14.23,6.9c3.21,0,3.22-5,0-5s-3.23,5,0,5Z"/><path class="cls-1" d="M31.38,13.28A6.63,6.63,0,0,0,33.76,13a3.73,3.73,0,0,0,1.61-.9,2.81,2.81,0,0,0,.76-1.85c0-.13,0-.26,0-.39l-.09.67,0-.08-.25.59.09-.15-.39.51a6.94,6.94,0,0,0,.68-.86,4.66,4.66,0,0,0,.4-1c.16-.48.31-1,.46-1.43.3-.91.56-1.85.91-2.75l-.25.6a.62.62,0,0,1,.11-.17l-.39.5a3.62,3.62,0,0,0,.78-.9,2.65,2.65,0,0,0,.25-1.93,2.5,2.5,0,0,0-4.57-.59l0,.07.39-.51c-.11.13-.24.21-.36.33a3.56,3.56,0,0,0-.82,1.47c-.17.47-.31.95-.47,1.43-.31.93-.56,1.91-.94,2.82l.26-.6-.1.17.39-.51a9.23,9.23,0,0,0-.72.93,4.13,4.13,0,0,0-.39,1.73l.09-.67,0,.09.64-1.11-.06.07.51-.39a.7.7,0,0,1-.17.09l.6-.25a5.27,5.27,0,0,1-1.15.3l.66-.09a4.68,4.68,0,0,1-.84,0,2.53,2.53,0,0,0-2.5,2.5,2.56,2.56,0,0,0,2.5,2.5Z"/><path class="cls-2" d="M36.29,4.14"/><path class="cls-2" d="M36.29,6.64c3.22,0,3.22-5,0-5s-3.22,5,0,5Z"/><path class="cls-2" d="M36.29,4.14"/><path class="cls-2" d="M36.29,6.64c3.22,0,3.22-5,0-5s-3.22,5,0,5Z"/><path class="cls-2" d="M14,4.2"/><path class="cls-2" d="M14,6.7c3.21,0,3.22-5,0-5s-3.23,5,0,5Z"/><path class="cls-1" d="M14.57,5.94a37.8,37.8,0,0,1,3.21,5.85l-.25-.59a9.16,9.16,0,0,1,.37,1,2.5,2.5,0,0,0,4.82-1.33,21.6,21.6,0,0,0-1.79-4.06,39.7,39.7,0,0,0-2-3.43A2.67,2.67,0,0,0,17.4,2.27a2.6,2.6,0,0,0-1.93.25,2.54,2.54,0,0,0-.9,3.42Z"/><path class="cls-2" d="M13.9,4.2"/><path class="cls-2" d="M13.9,6.7c3.22,0,3.23-5,0-5s-3.22,5,0,5Z"/><path class="cls-2" d="M36.16,4.14"/><path class="cls-2" d="M36.16,6.64c3.22,0,3.22-5,0-5s-3.22,5,0,5Z"/><path class="cls-2" d="M36.29,4.08"/><path class="cls-2" d="M36.29,6.58c3.22,0,3.22-5,0-5s-3.22,5,0,5Z"/><rect class="cls-1" x="1.58" y="1.32" width="9.69" height="1"/><ellipse class="cls-1" cx="12.49" cy="2.87" rx="1.22" ry="0.98"/><ellipse class="cls-1" cx="1.8" cy="1.43" rx="1.3" ry="0.89"/></g></g></svg>