<svg xmlns="http://www.w3.org/2000/svg" viewBox="0 0 33.61 28.26"><defs><style>.cls-1,.cls-2{fill:#715b91;}.cls-1{stroke:#715b91;stroke-miterlimit:10;}</style></defs><g id="Layer_2" data-name="Layer 2"><g id="Layer_1-2" data-name="Layer 1"><rect class="cls-1" x="8.78" y="9.82" width="16.65" height="17.94" rx="1.16"/><rect class="cls-1" x="14.07" y="19.37" width="6.06" height="8.39" rx="1.16"/><path class="cls-2" d="M16.78,13.34a10.64,10.64,0,0,0-2.94-.67,5.12,5.12,0,0,1-2.62-.57"/><path class="cls-2" d="M17.44,10.93a11.08,11.08,0,0,0-2.21-.59c-.89-.13-1.79-.16-2.68-.27l.67.09a4.27,4.27,0,0,1-.87-.22l.6.25a2.64,2.64,0,0,1-.47-.25,2.55,2.55,0,0,0-1.93-.25,2.5,2.5,0,0,0-1.74,3.07A2.8,2.8,0,0,0,10,14.26c1.31.88,2.9.78,4.39,1l-.66-.08a10.82,10.82,0,0,1,2.43.61A2.49,2.49,0,0,0,18,15.5,2.54,2.54,0,0,0,19.19,14a2.47,2.47,0,0,0-.25-1.92,2.82,2.82,0,0,0-1.5-1.15Z"/><path class="cls-2" d="M11,12.89q.08,6.28.37,12.57a.27.27,0,0,0,0,.12c.06.08.2,0,.29,0s.26,0,.26.08"/><path class="cls-2" d="M8.52,12.89c0,2.55.09,5.11.18,7.66,0,1.26.09,2.52.14,3.77a5.39,5.39,0,0,0,.42,2.52A2.63,2.63,0,0,0,10.89,28a3.46,3.46,0,0,0,1.6-.06H11.16l.1,0L9.77,26.85l0,.07a2.52,2.52,0,0,0,3.42.9,2.55,2.55,0,0,0,.9-3.42,2.76,2.76,0,0,0-3.24-1.19h1.33l-.13,0,1.74,1.74c.17.67,0,0,0-.21s0-.58,0-.88l-.06-1.51c0-1-.08-2.09-.11-3.14-.06-2.09-.1-4.19-.13-6.28a2.5,2.5,0,0,0-5,0Z"/><path class="cls-2" d="M22.54,15.51a1.93,1.93,0,0,1-.93.36c-2.61.5-5.37,0-7.91.72-.17.05-.36.12-.41.29a.38.38,0,0,0,.08.35,1,1,0,0,0,.8.32,4.34,4.34,0,0,0,.87-.18,5.92,5.92,0,0,1,2-.19c.61,0,1.21.16,1.81.13a2,2,0,0,0,1.59-.74,2.77,2.77,0,0,0,.14-2.14,1.39,1.39,0,0,0-.21-.6,1.18,1.18,0,0,0-.46-.34c-1.29-.63-2.82-.38-4.25-.56-.11,0-.26-.07-.25-.19a2.73,2.73,0,0,1,1.81-.27,21.12,21.12,0,0,0,5.44.16"/><path class="cls-2" d="M21.28,13.36a1.05,1.05,0,0,0-.24.15c.06-.18.55-.2.12-.09l-.3.06h-.09c-.27,0-.22,0,.16,0a2.28,2.28,0,0,1-.69.07l-.87,0c-1,0-2,0-3,.08a13,13,0,0,0-3.4.53,2.92,2.92,0,0,0-2.14,2.67,3.05,3.05,0,0,0,1.5,2.68,3.61,3.61,0,0,0,2.36.43,7,7,0,0,0,.91-.17,5.85,5.85,0,0,0,.79-.18c0,.05-.64.05-.17,0l.33,0c.23,0,.45,0,.68,0a10.59,10.59,0,0,0,1.69.12,4.56,4.56,0,0,0,3.75-2.1,5.56,5.56,0,0,0,.3-4.07,4.15,4.15,0,0,0-3.6-2.92,13.69,13.69,0,0,0-2-.2l-.81,0-.4,0c-.85-.06.07-.31,1.06.58l.64,1.11,0-.08L16.63,14.9c.42-.26-.56.16-.08,0s-.23,0-.25,0,.68,0,.81,0c.63,0,1.26.13,1.89.19A16.58,16.58,0,0,0,23.28,15a2.5,2.5,0,0,0,1.5-1.15A2.5,2.5,0,0,0,22,10.22c-.61.1.57,0-.05,0l-.45,0c-.33,0-.67,0-1,0-.67,0-1.33-.09-2-.16-1.49-.15-3-.34-4.34.5A2.55,2.55,0,0,0,13,13.41a2.69,2.69,0,0,0,1.31,1.66,4,4,0,0,0,1.83.4c.59,0,1.19,0,1.78.07.1,0,.37.09.47,0l-.27,0,.23,0c.16,0,.31.08.46.12s.2.07,0,0-.2-.09,0,0c-.21-.15-.73-.59-.66-.87a.92.92,0,0,0,.07.32c0,.1.13.64,0,.19s0,.08,0,.19c0,.42,0,0,0-.16,0,.46.26-.45,0-.07a.9.9,0,0,1,.36-.41c.18-.13.19-.14,0,0-.42.27.54-.22.07,0l-.13,0c.43,0,.51-.06.24,0h-.54c-.33,0-.66-.07-1-.1a8.94,8.94,0,0,0-2.42.15c-.31.06-.62.13-.92.22s.44,0,.16,0-.08,0,.35,0a1.92,1.92,0,0,1,1.34,1.79l-.35,1.26a1.91,1.91,0,0,1-1.08.86l.33-.09.51-.11.34-.06c.27,0,.22,0-.16,0,0-.06.45-.05.52-.05.81-.07,1.62-.07,2.43-.09s1.62,0,2.42-.12a6.23,6.23,0,0,0,3.05-.83A2.67,2.67,0,0,0,25,16.18a2.6,2.6,0,0,0-.25-1.93,2.53,2.53,0,0,0-3.42-.89Z"/><path class="cls-2" d="M17.07,12.31q-1.29,0-2.58,0"/><path class="cls-2" d="M17.07,9.81q-1.29,0-2.58,0a1.86,1.86,0,0,0-1,.22,2.16,2.16,0,0,0-1.32,1.32,1.88,1.88,0,0,0-.22,1l.09.67a2.49,2.49,0,0,0,2.41,1.83q1.29-.06,2.58,0a1.86,1.86,0,0,0,1-.22,1.93,1.93,0,0,0,.81-.51,2.05,2.05,0,0,0,.52-.81,2,2,0,0,0,.21-1l-.09-.67a2.5,2.5,0,0,0-.64-1.1l-.51-.39a2.43,2.43,0,0,0-1.26-.34Z"/><path class="cls-2" d="M23,12.37"/><path class="cls-2" d="M23,14.87c3.22,0,3.23-5,0-5s-3.22,5,0,5Z"/><path class="cls-2" d="M23.17,12.34"/><path class="cls-2" d="M23.17,14.84c3.21,0,3.22-5,0-5s-3.23,5,0,5Z"/><path class="cls-2" d="M23.29,24.43c-.2.34-.4.69-.61,1"/><path class="cls-2" d="M21.13,23.17c-.2.34-.4.68-.61,1a1.86,1.86,0,0,0-.3.93,1.86,1.86,0,0,0,.05,1,1.78,1.78,0,0,0,.44.85,1.9,1.9,0,0,0,.7.65l.6.25a2.5,2.5,0,0,0,1.33,0l.6-.25a2.48,2.48,0,0,0,.89-.9c.22-.33.42-.67.62-1a1.85,1.85,0,0,0,.29-.93,1.89,1.89,0,0,0,0-1,2,2,0,0,0-.45-.85,2,2,0,0,0-.7-.64L24,22a2.5,2.5,0,0,0-1.33,0l-.6.25a2.48,2.48,0,0,0-.89.9Z"/><path class="cls-2" d="M22.26,25.6"/><path class="cls-2" d="M22.26,28.1c3.22,0,3.23-5,0-5s-3.22,5,0,5Z"/><path class="cls-2" d="M23.07,25.47l0,0"/><path class="cls-2" d="M21.3,27.23l0,0a1.93,1.93,0,0,0,.81.51,2.23,2.23,0,0,0,1.93,0,1.89,1.89,0,0,0,.8-.51l.39-.51a2.43,2.43,0,0,0,.34-1.26l-.09-.67a2.5,2.5,0,0,0-.64-1.1l0,0a1.85,1.85,0,0,0-.81-.52,1.85,1.85,0,0,0-1-.21,1.88,1.88,0,0,0-1,.21,1.85,1.85,0,0,0-.81.52l-.39.5a2.57,2.57,0,0,0-.34,1.27l.09.66a2.5,2.5,0,0,0,.64,1.1Z"/><path class="cls-2" d="M23,23.75a17.23,17.23,0,0,1-.66-5.35"/><path class="cls-2" d="M25.37,23.09a16.57,16.57,0,0,1-.52-2.5l.09.66a16.91,16.91,0,0,1-.14-2.85,2.56,2.56,0,0,0-.74-1.77A2.5,2.5,0,0,0,19.8,18.4a20,20,0,0,0,.74,6,2.67,2.67,0,0,0,1.15,1.49,2.55,2.55,0,0,0,1.93.25A2.46,2.46,0,0,0,25.11,25a2.57,2.57,0,0,0,.26-1.92Z"/><path class="cls-2" d="M23.38,16c-.1,1.56-.14,3.12-.1,4.68"/><path class="cls-2" d="M20.88,16c-.1,1.56-.13,3.12-.1,4.68a2.61,2.61,0,0,0,.73,1.77,2.5,2.5,0,0,0,3.53,0,2.58,2.58,0,0,0,.74-1.77c0-1.56,0-3.12.1-4.68a2.57,2.57,0,0,0-.73-1.77,2.53,2.53,0,0,0-1.77-.73,2.57,2.57,0,0,0-1.77.73A2.81,2.81,0,0,0,20.88,16Z"/><path class="cls-2" d="M22.46,24.37"/><path class="cls-2" d="M22.46,26.87c3.21,0,3.22-5,0-5s-3.23,5,0,5Z"/><rect class="cls-1" x="-1.3" y="9.76" width="21.7" height="1" transform="translate(-4.46 9.76) rotate(-45)"/><rect class="cls-1" x="23.67" y="-0.59" width="1" height="21.7" transform="translate(-0.18 20.1) rotate(-45)"/><rect class="cls-1" x="-2" y="9.07" width="21.7" height="1" transform="translate(-4.17 9.06) rotate(-45)"/><rect class="cls-1" x="22.98" y="-1.29" width="1" height="21.7" transform="translate(0.11 19.4) rotate(-45)"/><polygon class="cls-1" points="1.31 17.38 0.7 16.73 16.73 0.71 17.43 1.41 1.31 17.38"/><rect class="cls-1" x="23.76" y="-1.9" width="1" height="21.7" transform="translate(0.78 19.77) rotate(-45)"/><rect class="cls-1" x="24.37" y="-1.29" width="1" height="21.7" transform="translate(0.52 20.39) rotate(-45)"/></g></g></svg>